<svg id="Layer_1" data-name="Layer 1" xmlns="http://www.w3.org/2000/svg" viewBox="0 0 484.62 408.83"><defs><style>.cls-1{fill:#414042;}.cls-2{fill:#1ebcba;}</style></defs><polygon class="cls-1" points="386.62 364.95 405.17 364.9 280.36 70.59 263.03 79.71 386.62 364.95"/><path class="cls-2" d="M101.2,439.11h1.53a10,10,0,0,0,9.12-5.85L243.58,144.76l-16.87-9.57L92.15,424.9A10,10,0,0,0,101.2,439.11Z" transform="translate(-12.76 -35.59)"/><path class="cls-1" d="M334.27,400.11,199.73,93.32h-1.61L66.21,394.13a10,10,0,0,1-9.16,6H22.77A10,10,0,0,1,13.67,386L171.28,41.43a10,10,0,0,1,9.1-5.84h37.1a10,10,0,0,1,9.09,5.84L390.66,400.11Z" transform="translate(-12.76 -35.59)"/><path class="cls-2" d="M443.88,437.3,312,134.24h-1.61L178.43,437.3a10,10,0,0,1-9.17,6H134.94a10,10,0,0,1-9.1-14.14L283.52,82a10,10,0,0,1,9.1-5.86h37.07a10,10,0,0,1,9.1,5.86L496.47,429.17a10,10,0,0,1-9.11,14.14H453.05A10,10,0,0,1,443.88,437.3Z" transform="translate(-12.76 -35.59)"/><path class="cls-2" d="M392.43,444.43h-33.1a10,10,0,0,1-9.19-6.05l-14.25-33.15h55.72l10.12,25.51A10,10,0,0,1,392.43,444.43Z" transform="translate(-12.76 -35.59)"/><path class="cls-2" d="M424.29,444.42h0a10,10,0,0,1-9.34-6.28l-13.12-32.72,17.7-.2,11.91,28.37A7.8,7.8,0,0,1,424.29,444.42Z" transform="translate(-12.76 -35.59)"/></svg>